<mxfile host="app.diagrams.net" agent="Mozilla/5.0 (Windows NT 10.0; Win64; x64) AppleWebKit/537.36 (KHTML, like Gecko) Chrome/134.0.0.0 Safari/537.36" version="26.1.1">
  <diagram name="Page-1" id="iK40IoMNJW8q36OvJC71">
    <mxGraphModel dx="1750" dy="2028" grid="1" gridSize="10" guides="1" tooltips="1" connect="1" arrows="1" fold="1" page="1" pageScale="1" pageWidth="850" pageHeight="1100" math="0" shadow="0">
      <root>
        <mxCell id="0" />
        <mxCell id="1" parent="0" />
        <mxCell id="se5RXSlxcSpM9KRG4HAq-1" value="&lt;b&gt;User&lt;/b&gt;" style="rounded=0;whiteSpace=wrap;html=1;fontFamily=Times New Roman;fontSize=13;fillColor=#e1d5e7;strokeColor=#9673a6;" vertex="1" parent="1">
          <mxGeometry x="140" y="240" width="80" height="40" as="geometry" />
        </mxCell>
        <mxCell id="se5RXSlxcSpM9KRG4HAq-2" value="Name" style="ellipse;whiteSpace=wrap;html=1;fontFamily=Times New Roman;fontSize=13;fillColor=#e6d0de;strokeColor=#996185;gradientColor=#d5739d;" vertex="1" parent="1">
          <mxGeometry x="20" y="190" width="90" height="50" as="geometry" />
        </mxCell>
        <mxCell id="se5RXSlxcSpM9KRG4HAq-3" value="Address" style="ellipse;whiteSpace=wrap;html=1;fontFamily=Times New Roman;fontSize=13;fillColor=#e6d0de;gradientColor=#d5739d;strokeColor=#996185;" vertex="1" parent="1">
          <mxGeometry x="140" y="160" width="90" height="50" as="geometry" />
        </mxCell>
        <mxCell id="se5RXSlxcSpM9KRG4HAq-4" value="ContactNumber" style="ellipse;whiteSpace=wrap;html=1;fontFamily=Times New Roman;fontSize=13;fillColor=#e6d0de;gradientColor=#d5739d;strokeColor=#996185;" vertex="1" parent="1">
          <mxGeometry x="210" y="310" width="90" height="50" as="geometry" />
        </mxCell>
        <mxCell id="se5RXSlxcSpM9KRG4HAq-5" value="Password" style="ellipse;whiteSpace=wrap;html=1;fontFamily=Times New Roman;fontSize=13;fillColor=#e6d0de;gradientColor=#d5739d;strokeColor=#996185;" vertex="1" parent="1">
          <mxGeometry x="100" y="330" width="90" height="50" as="geometry" />
        </mxCell>
        <mxCell id="se5RXSlxcSpM9KRG4HAq-6" value="Email" style="ellipse;whiteSpace=wrap;html=1;fontFamily=Times New Roman;fontSize=13;fillColor=#e6d0de;gradientColor=#d5739d;strokeColor=#996185;" vertex="1" parent="1">
          <mxGeometry x="20" y="270" width="90" height="50" as="geometry" />
        </mxCell>
        <mxCell id="se5RXSlxcSpM9KRG4HAq-7" value="UserID" style="ellipse;whiteSpace=wrap;html=1;fontFamily=Times New Roman;fontSize=13;fillColor=#e6d0de;strokeColor=#996185;gradientColor=#d5739d;" vertex="1" parent="1">
          <mxGeometry x="47.5" y="130" width="90" height="50" as="geometry" />
        </mxCell>
        <mxCell id="se5RXSlxcSpM9KRG4HAq-8" value="" style="endArrow=none;html=1;rounded=0;fontFamily=Times New Roman;fontSize=13;" edge="1" parent="1">
          <mxGeometry width="50" height="50" relative="1" as="geometry">
            <mxPoint x="72.5" y="160" as="sourcePoint" />
            <mxPoint x="112.5" y="160" as="targetPoint" />
          </mxGeometry>
        </mxCell>
        <mxCell id="se5RXSlxcSpM9KRG4HAq-9" value="" style="endArrow=none;html=1;rounded=0;exitX=1;exitY=1;exitDx=0;exitDy=0;entryX=0.5;entryY=0;entryDx=0;entryDy=0;fontFamily=Times New Roman;fontSize=13;" edge="1" parent="1" source="se5RXSlxcSpM9KRG4HAq-1" target="se5RXSlxcSpM9KRG4HAq-4">
          <mxGeometry width="50" height="50" relative="1" as="geometry">
            <mxPoint x="330" y="320" as="sourcePoint" />
            <mxPoint x="380" y="270" as="targetPoint" />
          </mxGeometry>
        </mxCell>
        <mxCell id="se5RXSlxcSpM9KRG4HAq-10" value="" style="endArrow=none;html=1;rounded=0;exitX=0.75;exitY=0;exitDx=0;exitDy=0;entryX=0.5;entryY=1;entryDx=0;entryDy=0;fontFamily=Times New Roman;fontSize=13;" edge="1" parent="1" source="se5RXSlxcSpM9KRG4HAq-1" target="se5RXSlxcSpM9KRG4HAq-3">
          <mxGeometry width="50" height="50" relative="1" as="geometry">
            <mxPoint x="330" y="320" as="sourcePoint" />
            <mxPoint x="380" y="270" as="targetPoint" />
          </mxGeometry>
        </mxCell>
        <mxCell id="se5RXSlxcSpM9KRG4HAq-12" value="" style="endArrow=none;html=1;rounded=0;exitX=0.5;exitY=1;exitDx=0;exitDy=0;entryX=0.5;entryY=0;entryDx=0;entryDy=0;fontFamily=Times New Roman;fontSize=13;" edge="1" parent="1" source="se5RXSlxcSpM9KRG4HAq-1" target="se5RXSlxcSpM9KRG4HAq-5">
          <mxGeometry width="50" height="50" relative="1" as="geometry">
            <mxPoint x="230" y="290" as="sourcePoint" />
            <mxPoint x="265" y="320" as="targetPoint" />
          </mxGeometry>
        </mxCell>
        <mxCell id="se5RXSlxcSpM9KRG4HAq-13" value="" style="endArrow=none;html=1;rounded=0;exitX=0;exitY=1;exitDx=0;exitDy=0;entryX=1;entryY=0.5;entryDx=0;entryDy=0;fontFamily=Times New Roman;fontSize=13;" edge="1" parent="1" source="se5RXSlxcSpM9KRG4HAq-1" target="se5RXSlxcSpM9KRG4HAq-6">
          <mxGeometry width="50" height="50" relative="1" as="geometry">
            <mxPoint x="240" y="300" as="sourcePoint" />
            <mxPoint x="275" y="330" as="targetPoint" />
          </mxGeometry>
        </mxCell>
        <mxCell id="se5RXSlxcSpM9KRG4HAq-14" value="" style="endArrow=none;html=1;rounded=0;exitX=0;exitY=0;exitDx=0;exitDy=0;entryX=1;entryY=1;entryDx=0;entryDy=0;fontFamily=Times New Roman;fontSize=13;" edge="1" parent="1" source="se5RXSlxcSpM9KRG4HAq-1" target="se5RXSlxcSpM9KRG4HAq-2">
          <mxGeometry width="50" height="50" relative="1" as="geometry">
            <mxPoint x="250" y="310" as="sourcePoint" />
            <mxPoint x="285" y="340" as="targetPoint" />
          </mxGeometry>
        </mxCell>
        <mxCell id="se5RXSlxcSpM9KRG4HAq-15" value="" style="endArrow=none;html=1;rounded=0;exitX=0.5;exitY=0;exitDx=0;exitDy=0;entryX=0.5;entryY=1;entryDx=0;entryDy=0;fontFamily=Times New Roman;fontSize=13;" edge="1" parent="1" source="se5RXSlxcSpM9KRG4HAq-1" target="se5RXSlxcSpM9KRG4HAq-7">
          <mxGeometry width="50" height="50" relative="1" as="geometry">
            <mxPoint x="260" y="320" as="sourcePoint" />
            <mxPoint x="295" y="350" as="targetPoint" />
          </mxGeometry>
        </mxCell>
        <mxCell id="se5RXSlxcSpM9KRG4HAq-16" value="&lt;b&gt;CourierServices&lt;/b&gt;" style="rounded=0;whiteSpace=wrap;html=1;fontFamily=Times New Roman;fontSize=13;fillColor=#e1d5e7;strokeColor=#9673a6;" vertex="1" parent="1">
          <mxGeometry x="490" y="540" width="100" height="40" as="geometry" />
        </mxCell>
        <mxCell id="se5RXSlxcSpM9KRG4HAq-24" value="ServiceID" style="ellipse;whiteSpace=wrap;html=1;fontFamily=Times New Roman;fontSize=13;fillColor=#e6d0de;gradientColor=#d5739d;strokeColor=#996185;" vertex="1" parent="1">
          <mxGeometry x="640" y="535" width="90" height="50" as="geometry" />
        </mxCell>
        <mxCell id="se5RXSlxcSpM9KRG4HAq-28" value="Cost" style="ellipse;whiteSpace=wrap;html=1;fontFamily=Times New Roman;fontSize=13;fillColor=#e6d0de;gradientColor=#d5739d;strokeColor=#996185;" vertex="1" parent="1">
          <mxGeometry x="440" y="610" width="90" height="50" as="geometry" />
        </mxCell>
        <mxCell id="se5RXSlxcSpM9KRG4HAq-29" value="ServiceName" style="ellipse;whiteSpace=wrap;html=1;fontFamily=Times New Roman;fontSize=13;fillColor=#e6d0de;gradientColor=#d5739d;strokeColor=#996185;" vertex="1" parent="1">
          <mxGeometry x="580" y="610" width="90" height="50" as="geometry" />
        </mxCell>
        <mxCell id="se5RXSlxcSpM9KRG4HAq-30" value="" style="endArrow=none;html=1;rounded=0;exitX=0;exitY=0.5;exitDx=0;exitDy=0;entryX=1;entryY=0.5;entryDx=0;entryDy=0;fontFamily=Times New Roman;fontSize=13;" edge="1" parent="1" source="se5RXSlxcSpM9KRG4HAq-24" target="se5RXSlxcSpM9KRG4HAq-16">
          <mxGeometry width="50" height="50" relative="1" as="geometry">
            <mxPoint x="470" y="630" as="sourcePoint" />
            <mxPoint x="520" y="580" as="targetPoint" />
          </mxGeometry>
        </mxCell>
        <mxCell id="se5RXSlxcSpM9KRG4HAq-31" value="" style="endArrow=none;html=1;rounded=0;exitX=0;exitY=0;exitDx=0;exitDy=0;entryX=0.75;entryY=1;entryDx=0;entryDy=0;fontFamily=Times New Roman;fontSize=13;" edge="1" parent="1" source="se5RXSlxcSpM9KRG4HAq-29" target="se5RXSlxcSpM9KRG4HAq-16">
          <mxGeometry width="50" height="50" relative="1" as="geometry">
            <mxPoint x="470" y="630" as="sourcePoint" />
            <mxPoint x="590" y="580" as="targetPoint" />
          </mxGeometry>
        </mxCell>
        <mxCell id="se5RXSlxcSpM9KRG4HAq-32" value="" style="endArrow=none;html=1;rounded=0;entryX=0.5;entryY=0;entryDx=0;entryDy=0;exitX=0.25;exitY=1;exitDx=0;exitDy=0;fontFamily=Times New Roman;fontSize=13;" edge="1" parent="1" source="se5RXSlxcSpM9KRG4HAq-16" target="se5RXSlxcSpM9KRG4HAq-28">
          <mxGeometry width="50" height="50" relative="1" as="geometry">
            <mxPoint x="470" y="630" as="sourcePoint" />
            <mxPoint x="520" y="580" as="targetPoint" />
          </mxGeometry>
        </mxCell>
        <mxCell id="se5RXSlxcSpM9KRG4HAq-33" value="" style="endArrow=none;html=1;rounded=0;fontFamily=Times New Roman;fontSize=13;" edge="1" parent="1">
          <mxGeometry width="50" height="50" relative="1" as="geometry">
            <mxPoint x="660" y="565" as="sourcePoint" />
            <mxPoint x="710" y="565" as="targetPoint" />
          </mxGeometry>
        </mxCell>
        <mxCell id="se5RXSlxcSpM9KRG4HAq-34" value="&lt;b&gt;Employee&lt;/b&gt;" style="rounded=0;whiteSpace=wrap;html=1;fontFamily=Times New Roman;fontSize=13;fillColor=#e1d5e7;strokeColor=#9673a6;" vertex="1" parent="1">
          <mxGeometry x="190" y="540" width="80" height="40" as="geometry" />
        </mxCell>
        <mxCell id="se5RXSlxcSpM9KRG4HAq-35" value="EmployeeID" style="ellipse;whiteSpace=wrap;html=1;fontFamily=Times New Roman;fontSize=13;fillColor=#e6d0de;gradientColor=#d5739d;strokeColor=#996185;" vertex="1" parent="1">
          <mxGeometry x="275" y="450" width="90" height="50" as="geometry" />
        </mxCell>
        <mxCell id="se5RXSlxcSpM9KRG4HAq-36" value="Name" style="ellipse;whiteSpace=wrap;html=1;fontFamily=Times New Roman;fontSize=13;fillColor=#e6d0de;gradientColor=#d5739d;strokeColor=#996185;" vertex="1" parent="1">
          <mxGeometry x="310" y="535" width="90" height="50" as="geometry" />
        </mxCell>
        <mxCell id="se5RXSlxcSpM9KRG4HAq-37" value="Email" style="ellipse;whiteSpace=wrap;html=1;fontFamily=Times New Roman;fontSize=13;fillColor=#e6d0de;gradientColor=#d5739d;strokeColor=#996185;" vertex="1" parent="1">
          <mxGeometry x="290" y="600" width="90" height="50" as="geometry" />
        </mxCell>
        <mxCell id="se5RXSlxcSpM9KRG4HAq-38" value="Role" style="ellipse;whiteSpace=wrap;html=1;fontFamily=Times New Roman;fontSize=13;fillColor=#e6d0de;gradientColor=#d5739d;strokeColor=#996185;" vertex="1" parent="1">
          <mxGeometry x="100" y="590" width="90" height="50" as="geometry" />
        </mxCell>
        <mxCell id="se5RXSlxcSpM9KRG4HAq-39" value="ContactNumber" style="ellipse;whiteSpace=wrap;html=1;fontFamily=Times New Roman;fontSize=13;fillColor=#e6d0de;gradientColor=#d5739d;strokeColor=#996185;" vertex="1" parent="1">
          <mxGeometry x="185" y="630" width="90" height="50" as="geometry" />
        </mxCell>
        <mxCell id="se5RXSlxcSpM9KRG4HAq-41" value="" style="endArrow=none;html=1;rounded=0;exitX=0.5;exitY=1;exitDx=0;exitDy=0;entryX=0;entryY=0;entryDx=0;entryDy=0;fontFamily=Times New Roman;fontSize=13;" edge="1" parent="1" target="se5RXSlxcSpM9KRG4HAq-34">
          <mxGeometry width="50" height="50" relative="1" as="geometry">
            <mxPoint x="155" y="500" as="sourcePoint" />
            <mxPoint x="200" y="470" as="targetPoint" />
          </mxGeometry>
        </mxCell>
        <mxCell id="se5RXSlxcSpM9KRG4HAq-42" value="" style="endArrow=none;html=1;rounded=0;exitX=0.367;exitY=0.988;exitDx=0;exitDy=0;entryX=1;entryY=0;entryDx=0;entryDy=0;exitPerimeter=0;fontFamily=Times New Roman;fontSize=13;" edge="1" parent="1" source="se5RXSlxcSpM9KRG4HAq-35" target="se5RXSlxcSpM9KRG4HAq-34">
          <mxGeometry width="50" height="50" relative="1" as="geometry">
            <mxPoint x="150" y="520" as="sourcePoint" />
            <mxPoint x="200" y="470" as="targetPoint" />
          </mxGeometry>
        </mxCell>
        <mxCell id="se5RXSlxcSpM9KRG4HAq-43" value="" style="endArrow=none;html=1;rounded=0;exitX=0.756;exitY=0.092;exitDx=0;exitDy=0;entryX=0;entryY=1;entryDx=0;entryDy=0;exitPerimeter=0;fontFamily=Times New Roman;fontSize=13;" edge="1" parent="1" source="se5RXSlxcSpM9KRG4HAq-38" target="se5RXSlxcSpM9KRG4HAq-34">
          <mxGeometry width="50" height="50" relative="1" as="geometry">
            <mxPoint x="150" y="520" as="sourcePoint" />
            <mxPoint x="200" y="470" as="targetPoint" />
          </mxGeometry>
        </mxCell>
        <mxCell id="se5RXSlxcSpM9KRG4HAq-44" value="" style="endArrow=none;html=1;rounded=0;exitX=0.5;exitY=0;exitDx=0;exitDy=0;entryX=0.5;entryY=1;entryDx=0;entryDy=0;fontFamily=Times New Roman;fontSize=13;" edge="1" parent="1" source="se5RXSlxcSpM9KRG4HAq-39" target="se5RXSlxcSpM9KRG4HAq-34">
          <mxGeometry width="50" height="50" relative="1" as="geometry">
            <mxPoint x="150" y="520" as="sourcePoint" />
            <mxPoint x="200" y="470" as="targetPoint" />
          </mxGeometry>
        </mxCell>
        <mxCell id="se5RXSlxcSpM9KRG4HAq-45" value="" style="endArrow=none;html=1;rounded=0;exitX=1;exitY=1;exitDx=0;exitDy=0;entryX=0;entryY=0;entryDx=0;entryDy=0;fontFamily=Times New Roman;fontSize=13;" edge="1" parent="1" source="se5RXSlxcSpM9KRG4HAq-34" target="se5RXSlxcSpM9KRG4HAq-37">
          <mxGeometry width="50" height="50" relative="1" as="geometry">
            <mxPoint x="150" y="520" as="sourcePoint" />
            <mxPoint x="200" y="470" as="targetPoint" />
          </mxGeometry>
        </mxCell>
        <mxCell id="se5RXSlxcSpM9KRG4HAq-46" value="" style="endArrow=none;html=1;rounded=0;exitX=0;exitY=0.5;exitDx=0;exitDy=0;entryX=1;entryY=0.5;entryDx=0;entryDy=0;fontFamily=Times New Roman;fontSize=13;" edge="1" parent="1" source="se5RXSlxcSpM9KRG4HAq-36" target="se5RXSlxcSpM9KRG4HAq-34">
          <mxGeometry width="50" height="50" relative="1" as="geometry">
            <mxPoint x="150" y="520" as="sourcePoint" />
            <mxPoint x="200" y="470" as="targetPoint" />
          </mxGeometry>
        </mxCell>
        <mxCell id="se5RXSlxcSpM9KRG4HAq-47" value="" style="endArrow=none;html=1;rounded=0;fontFamily=Times New Roman;fontSize=13;" edge="1" parent="1">
          <mxGeometry width="50" height="50" relative="1" as="geometry">
            <mxPoint x="285" y="480" as="sourcePoint" />
            <mxPoint x="355" y="480.5" as="targetPoint" />
          </mxGeometry>
        </mxCell>
        <mxCell id="se5RXSlxcSpM9KRG4HAq-48" value="&lt;b&gt;Courier&lt;/b&gt;" style="rounded=0;whiteSpace=wrap;html=1;fontFamily=Times New Roman;fontSize=13;fillColor=#e1d5e7;strokeColor=#9673a6;" vertex="1" parent="1">
          <mxGeometry x="520" y="240" width="80" height="40" as="geometry" />
        </mxCell>
        <mxCell id="se5RXSlxcSpM9KRG4HAq-49" value="CourierID" style="ellipse;whiteSpace=wrap;html=1;fontFamily=Times New Roman;fontSize=13;fillColor=#e6d0de;gradientColor=#d5739d;strokeColor=#996185;" vertex="1" parent="1">
          <mxGeometry x="580" y="120" width="90" height="40" as="geometry" />
        </mxCell>
        <mxCell id="se5RXSlxcSpM9KRG4HAq-51" value="SenderName" style="ellipse;whiteSpace=wrap;html=1;fontFamily=Times New Roman;fontSize=13;fillColor=#e6d0de;gradientColor=#d5739d;strokeColor=#996185;" vertex="1" parent="1">
          <mxGeometry x="675" y="135" width="90" height="50" as="geometry" />
        </mxCell>
        <mxCell id="se5RXSlxcSpM9KRG4HAq-52" value="ReceiverAddress" style="ellipse;whiteSpace=wrap;html=1;fontFamily=Times New Roman;fontSize=13;fillColor=#e6d0de;gradientColor=#d5739d;strokeColor=#996185;" vertex="1" parent="1">
          <mxGeometry x="665" y="330" width="100" height="50" as="geometry" />
        </mxCell>
        <mxCell id="se5RXSlxcSpM9KRG4HAq-53" value="TrackingNumber" style="ellipse;whiteSpace=wrap;html=1;fontFamily=Times New Roman;fontSize=13;fillColor=#e6d0de;gradientColor=#d5739d;strokeColor=#996185;" vertex="1" parent="1">
          <mxGeometry x="390" y="190" width="100" height="50" as="geometry" />
        </mxCell>
        <mxCell id="se5RXSlxcSpM9KRG4HAq-54" value="Status" style="ellipse;whiteSpace=wrap;html=1;fontFamily=Times New Roman;fontSize=13;fillColor=#e6d0de;gradientColor=#d5739d;strokeColor=#996185;" vertex="1" parent="1">
          <mxGeometry x="420" y="290" width="70" height="40" as="geometry" />
        </mxCell>
        <mxCell id="se5RXSlxcSpM9KRG4HAq-55" value="SenderAddress" style="ellipse;whiteSpace=wrap;html=1;fontFamily=Times New Roman;fontSize=13;fillColor=#e6d0de;gradientColor=#d5739d;strokeColor=#996185;" vertex="1" parent="1">
          <mxGeometry x="710" y="220" width="90" height="50" as="geometry" />
        </mxCell>
        <mxCell id="se5RXSlxcSpM9KRG4HAq-56" value="ReceiverName" style="ellipse;whiteSpace=wrap;html=1;fontFamily=Times New Roman;fontSize=13;fillColor=#e6d0de;gradientColor=#d5739d;strokeColor=#996185;" vertex="1" parent="1">
          <mxGeometry x="725" y="280" width="90" height="50" as="geometry" />
        </mxCell>
        <mxCell id="se5RXSlxcSpM9KRG4HAq-57" value="Weight" style="ellipse;whiteSpace=wrap;html=1;fontFamily=Times New Roman;fontSize=13;fillColor=#e6d0de;gradientColor=#d5739d;strokeColor=#996185;" vertex="1" parent="1">
          <mxGeometry x="580" y="330" width="70" height="40" as="geometry" />
        </mxCell>
        <mxCell id="se5RXSlxcSpM9KRG4HAq-59" value="" style="endArrow=none;html=1;rounded=0;entryX=0;entryY=1;entryDx=0;entryDy=0;exitX=1;exitY=0;exitDx=0;exitDy=0;fontFamily=Times New Roman;fontSize=13;" edge="1" parent="1" source="se5RXSlxcSpM9KRG4HAq-54" target="se5RXSlxcSpM9KRG4HAq-48">
          <mxGeometry width="50" height="50" relative="1" as="geometry">
            <mxPoint x="400" y="430" as="sourcePoint" />
            <mxPoint x="450" y="380" as="targetPoint" />
          </mxGeometry>
        </mxCell>
        <mxCell id="se5RXSlxcSpM9KRG4HAq-60" value="" style="endArrow=none;html=1;rounded=0;exitX=1;exitY=1;exitDx=0;exitDy=0;entryX=0;entryY=0;entryDx=0;entryDy=0;fontFamily=Times New Roman;fontSize=13;" edge="1" parent="1" source="se5RXSlxcSpM9KRG4HAq-53" target="se5RXSlxcSpM9KRG4HAq-48">
          <mxGeometry width="50" height="50" relative="1" as="geometry">
            <mxPoint x="400" y="430" as="sourcePoint" />
            <mxPoint x="450" y="380" as="targetPoint" />
          </mxGeometry>
        </mxCell>
        <mxCell id="se5RXSlxcSpM9KRG4HAq-61" value="" style="endArrow=none;html=1;rounded=0;exitX=0.5;exitY=1;exitDx=0;exitDy=0;entryX=0.25;entryY=0;entryDx=0;entryDy=0;fontFamily=Times New Roman;fontSize=13;" edge="1" parent="1" source="se5RXSlxcSpM9KRG4HAq-114" target="se5RXSlxcSpM9KRG4HAq-48">
          <mxGeometry width="50" height="50" relative="1" as="geometry">
            <mxPoint x="517.23" y="177.79999999999995" as="sourcePoint" />
            <mxPoint x="450" y="380" as="targetPoint" />
          </mxGeometry>
        </mxCell>
        <mxCell id="se5RXSlxcSpM9KRG4HAq-62" value="" style="endArrow=none;html=1;rounded=0;exitX=0.5;exitY=0;exitDx=0;exitDy=0;entryX=0.5;entryY=1;entryDx=0;entryDy=0;fontFamily=Times New Roman;fontSize=13;" edge="1" parent="1" source="se5RXSlxcSpM9KRG4HAq-57" target="se5RXSlxcSpM9KRG4HAq-48">
          <mxGeometry width="50" height="50" relative="1" as="geometry">
            <mxPoint x="400" y="430" as="sourcePoint" />
            <mxPoint x="450" y="380" as="targetPoint" />
          </mxGeometry>
        </mxCell>
        <mxCell id="se5RXSlxcSpM9KRG4HAq-63" value="" style="endArrow=none;html=1;rounded=0;entryX=0.5;entryY=1;entryDx=0;entryDy=0;exitX=0.75;exitY=0;exitDx=0;exitDy=0;fontFamily=Times New Roman;fontSize=13;" edge="1" parent="1" source="se5RXSlxcSpM9KRG4HAq-48" target="se5RXSlxcSpM9KRG4HAq-49">
          <mxGeometry width="50" height="50" relative="1" as="geometry">
            <mxPoint x="400" y="430" as="sourcePoint" />
            <mxPoint x="450" y="380" as="targetPoint" />
          </mxGeometry>
        </mxCell>
        <mxCell id="se5RXSlxcSpM9KRG4HAq-64" value="" style="endArrow=none;html=1;rounded=0;exitX=0;exitY=0;exitDx=0;exitDy=0;entryX=1;entryY=1;entryDx=0;entryDy=0;fontFamily=Times New Roman;fontSize=13;" edge="1" parent="1" source="se5RXSlxcSpM9KRG4HAq-52" target="se5RXSlxcSpM9KRG4HAq-48">
          <mxGeometry width="50" height="50" relative="1" as="geometry">
            <mxPoint x="400" y="430" as="sourcePoint" />
            <mxPoint x="450" y="380" as="targetPoint" />
          </mxGeometry>
        </mxCell>
        <mxCell id="se5RXSlxcSpM9KRG4HAq-65" value="" style="endArrow=none;html=1;rounded=0;exitX=0;exitY=0.5;exitDx=0;exitDy=0;entryX=1;entryY=0.75;entryDx=0;entryDy=0;fontFamily=Times New Roman;fontSize=13;" edge="1" parent="1" source="se5RXSlxcSpM9KRG4HAq-56" target="se5RXSlxcSpM9KRG4HAq-48">
          <mxGeometry width="50" height="50" relative="1" as="geometry">
            <mxPoint x="400" y="430" as="sourcePoint" />
            <mxPoint x="450" y="380" as="targetPoint" />
          </mxGeometry>
        </mxCell>
        <mxCell id="se5RXSlxcSpM9KRG4HAq-66" value="" style="endArrow=none;html=1;rounded=0;exitX=1;exitY=0;exitDx=0;exitDy=0;entryX=0;entryY=1;entryDx=0;entryDy=0;fontFamily=Times New Roman;fontSize=13;" edge="1" parent="1" source="se5RXSlxcSpM9KRG4HAq-48" target="se5RXSlxcSpM9KRG4HAq-51">
          <mxGeometry width="50" height="50" relative="1" as="geometry">
            <mxPoint x="400" y="430" as="sourcePoint" />
            <mxPoint x="450" y="380" as="targetPoint" />
          </mxGeometry>
        </mxCell>
        <mxCell id="se5RXSlxcSpM9KRG4HAq-67" value="" style="endArrow=none;html=1;rounded=0;exitX=0;exitY=0.5;exitDx=0;exitDy=0;entryX=1;entryY=0.5;entryDx=0;entryDy=0;fontFamily=Times New Roman;fontSize=13;" edge="1" parent="1" source="se5RXSlxcSpM9KRG4HAq-55" target="se5RXSlxcSpM9KRG4HAq-48">
          <mxGeometry width="50" height="50" relative="1" as="geometry">
            <mxPoint x="400" y="430" as="sourcePoint" />
            <mxPoint x="450" y="380" as="targetPoint" />
          </mxGeometry>
        </mxCell>
        <mxCell id="se5RXSlxcSpM9KRG4HAq-68" value="" style="endArrow=none;html=1;rounded=0;fontFamily=Times New Roman;fontSize=13;" edge="1" parent="1">
          <mxGeometry width="50" height="50" relative="1" as="geometry">
            <mxPoint x="597.5" y="145" as="sourcePoint" />
            <mxPoint x="652.5" y="145" as="targetPoint" />
          </mxGeometry>
        </mxCell>
        <mxCell id="se5RXSlxcSpM9KRG4HAq-69" value="&lt;b&gt;Location&lt;/b&gt;" style="rounded=0;whiteSpace=wrap;html=1;fontFamily=Times New Roman;fontSize=13;fillColor=#e1d5e7;strokeColor=#9673a6;" vertex="1" parent="1">
          <mxGeometry x="990" y="125" width="80" height="40" as="geometry" />
        </mxCell>
        <mxCell id="se5RXSlxcSpM9KRG4HAq-70" value="LocationID" style="ellipse;whiteSpace=wrap;html=1;fontFamily=Times New Roman;fontSize=13;fillColor=#e6d0de;gradientColor=#d5739d;strokeColor=#996185;" vertex="1" parent="1">
          <mxGeometry x="895" y="50" width="90" height="50" as="geometry" />
        </mxCell>
        <mxCell id="se5RXSlxcSpM9KRG4HAq-71" value="LocationName" style="ellipse;whiteSpace=wrap;html=1;fontFamily=Times New Roman;fontSize=13;fillColor=#e6d0de;gradientColor=#d5739d;strokeColor=#996185;" vertex="1" parent="1">
          <mxGeometry x="1100" y="120" width="90" height="50" as="geometry" />
        </mxCell>
        <mxCell id="se5RXSlxcSpM9KRG4HAq-72" value="Address" style="ellipse;whiteSpace=wrap;html=1;fontFamily=Times New Roman;fontSize=13;fillColor=#e6d0de;gradientColor=#d5739d;strokeColor=#996185;" vertex="1" parent="1">
          <mxGeometry x="890" y="200" width="90" height="50" as="geometry" />
        </mxCell>
        <mxCell id="se5RXSlxcSpM9KRG4HAq-73" value="" style="endArrow=none;html=1;rounded=0;exitX=0.5;exitY=0;exitDx=0;exitDy=0;entryX=0;entryY=1;entryDx=0;entryDy=0;fontFamily=Times New Roman;fontSize=13;" edge="1" parent="1" source="se5RXSlxcSpM9KRG4HAq-72" target="se5RXSlxcSpM9KRG4HAq-69">
          <mxGeometry width="50" height="50" relative="1" as="geometry">
            <mxPoint x="1200" y="210" as="sourcePoint" />
            <mxPoint x="1250" y="160" as="targetPoint" />
          </mxGeometry>
        </mxCell>
        <mxCell id="se5RXSlxcSpM9KRG4HAq-74" value="" style="endArrow=none;html=1;rounded=0;exitX=1;exitY=1;exitDx=0;exitDy=0;entryX=0;entryY=0;entryDx=0;entryDy=0;fontFamily=Times New Roman;fontSize=13;" edge="1" parent="1" source="se5RXSlxcSpM9KRG4HAq-70" target="se5RXSlxcSpM9KRG4HAq-69">
          <mxGeometry width="50" height="50" relative="1" as="geometry">
            <mxPoint x="1200" y="210" as="sourcePoint" />
            <mxPoint x="1250" y="160" as="targetPoint" />
          </mxGeometry>
        </mxCell>
        <mxCell id="se5RXSlxcSpM9KRG4HAq-75" value="" style="endArrow=none;html=1;rounded=0;exitX=0;exitY=0.5;exitDx=0;exitDy=0;entryX=1;entryY=0.5;entryDx=0;entryDy=0;fontFamily=Times New Roman;fontSize=13;" edge="1" parent="1" source="se5RXSlxcSpM9KRG4HAq-71" target="se5RXSlxcSpM9KRG4HAq-69">
          <mxGeometry width="50" height="50" relative="1" as="geometry">
            <mxPoint x="1200" y="210" as="sourcePoint" />
            <mxPoint x="1250" y="160" as="targetPoint" />
          </mxGeometry>
        </mxCell>
        <mxCell id="se5RXSlxcSpM9KRG4HAq-76" value="" style="endArrow=none;html=1;rounded=0;fontFamily=Times New Roman;fontSize=13;" edge="1" parent="1">
          <mxGeometry width="50" height="50" relative="1" as="geometry">
            <mxPoint x="910" y="80" as="sourcePoint" />
            <mxPoint x="970" y="81" as="targetPoint" />
          </mxGeometry>
        </mxCell>
        <mxCell id="se5RXSlxcSpM9KRG4HAq-95" value="Street" style="ellipse;whiteSpace=wrap;html=1;align=center;fontFamily=Times New Roman;fontSize=13;fillColor=#dae8fc;gradientColor=#7ea6e0;strokeColor=#6c8ebf;" vertex="1" parent="1">
          <mxGeometry x="107.5" y="80" width="70" height="40" as="geometry" />
        </mxCell>
        <mxCell id="se5RXSlxcSpM9KRG4HAq-96" value="Pincode" style="ellipse;whiteSpace=wrap;html=1;align=center;fontFamily=Times New Roman;fontSize=13;fillColor=#dae8fc;gradientColor=#7ea6e0;strokeColor=#6c8ebf;" vertex="1" parent="1">
          <mxGeometry x="242.5" y="125" width="70" height="45" as="geometry" />
        </mxCell>
        <mxCell id="se5RXSlxcSpM9KRG4HAq-97" value="City" style="ellipse;whiteSpace=wrap;html=1;align=center;fontFamily=Times New Roman;fontSize=13;fillColor=#dae8fc;gradientColor=#7ea6e0;strokeColor=#6c8ebf;" vertex="1" parent="1">
          <mxGeometry x="162.5" y="35" width="70" height="40" as="geometry" />
        </mxCell>
        <mxCell id="se5RXSlxcSpM9KRG4HAq-98" value="State" style="ellipse;whiteSpace=wrap;html=1;align=center;fontFamily=Times New Roman;fontSize=13;fillColor=#dae8fc;gradientColor=#7ea6e0;strokeColor=#6c8ebf;" vertex="1" parent="1">
          <mxGeometry x="222.5" y="70" width="70" height="40" as="geometry" />
        </mxCell>
        <mxCell id="se5RXSlxcSpM9KRG4HAq-99" value="" style="endArrow=none;html=1;rounded=0;exitX=0.5;exitY=1;exitDx=0;exitDy=0;entryX=0;entryY=0;entryDx=0;entryDy=0;fontFamily=Times New Roman;fontSize=13;" edge="1" parent="1" source="se5RXSlxcSpM9KRG4HAq-95" target="se5RXSlxcSpM9KRG4HAq-3">
          <mxGeometry width="50" height="50" relative="1" as="geometry">
            <mxPoint x="312.5" y="310" as="sourcePoint" />
            <mxPoint x="162.47000000000003" y="161" as="targetPoint" />
          </mxGeometry>
        </mxCell>
        <mxCell id="se5RXSlxcSpM9KRG4HAq-100" value="" style="endArrow=none;html=1;rounded=0;exitX=0.5;exitY=0;exitDx=0;exitDy=0;entryX=0.5;entryY=1;entryDx=0;entryDy=0;fontFamily=Times New Roman;fontSize=13;" edge="1" parent="1" target="se5RXSlxcSpM9KRG4HAq-97">
          <mxGeometry width="50" height="50" relative="1" as="geometry">
            <mxPoint x="177.5" y="160" as="sourcePoint" />
            <mxPoint x="362.5" y="260" as="targetPoint" />
          </mxGeometry>
        </mxCell>
        <mxCell id="se5RXSlxcSpM9KRG4HAq-101" value="" style="endArrow=none;html=1;rounded=0;entryX=0;entryY=1;entryDx=0;entryDy=0;fontFamily=Times New Roman;fontSize=13;" edge="1" parent="1" target="se5RXSlxcSpM9KRG4HAq-98">
          <mxGeometry width="50" height="50" relative="1" as="geometry">
            <mxPoint x="192.5" y="160" as="sourcePoint" />
            <mxPoint x="252.5" y="110" as="targetPoint" />
          </mxGeometry>
        </mxCell>
        <mxCell id="se5RXSlxcSpM9KRG4HAq-102" value="" style="endArrow=none;html=1;rounded=0;exitX=0.755;exitY=0.062;exitDx=0;exitDy=0;entryX=0;entryY=0.5;entryDx=0;entryDy=0;exitPerimeter=0;fontFamily=Times New Roman;fontSize=13;" edge="1" parent="1" source="se5RXSlxcSpM9KRG4HAq-3" target="se5RXSlxcSpM9KRG4HAq-96">
          <mxGeometry width="50" height="50" relative="1" as="geometry">
            <mxPoint x="209.44994586743906" y="167.39492778732938" as="sourcePoint" />
            <mxPoint x="262.5" y="150" as="targetPoint" />
          </mxGeometry>
        </mxCell>
        <mxCell id="se5RXSlxcSpM9KRG4HAq-103" value="Street" style="ellipse;whiteSpace=wrap;html=1;align=center;fontFamily=Times New Roman;fontSize=13;fillColor=#dae8fc;gradientColor=#7ea6e0;strokeColor=#6c8ebf;" vertex="1" parent="1">
          <mxGeometry x="830" y="260" width="70" height="40" as="geometry" />
        </mxCell>
        <mxCell id="se5RXSlxcSpM9KRG4HAq-104" value="Pincode" style="ellipse;whiteSpace=wrap;html=1;align=center;fontFamily=Times New Roman;fontSize=13;fillColor=#dae8fc;gradientColor=#7ea6e0;strokeColor=#6c8ebf;" vertex="1" parent="1">
          <mxGeometry x="950" y="265" width="70" height="45" as="geometry" />
        </mxCell>
        <mxCell id="se5RXSlxcSpM9KRG4HAq-105" value="City" style="ellipse;whiteSpace=wrap;html=1;align=center;fontFamily=Times New Roman;fontSize=13;fillColor=#dae8fc;gradientColor=#7ea6e0;strokeColor=#6c8ebf;" vertex="1" parent="1">
          <mxGeometry x="890" y="300" width="70" height="40" as="geometry" />
        </mxCell>
        <mxCell id="se5RXSlxcSpM9KRG4HAq-106" value="State" style="ellipse;whiteSpace=wrap;html=1;align=center;fontFamily=Times New Roman;fontSize=13;fillColor=#dae8fc;gradientColor=#7ea6e0;strokeColor=#6c8ebf;" vertex="1" parent="1">
          <mxGeometry x="1005" y="225" width="70" height="40" as="geometry" />
        </mxCell>
        <mxCell id="se5RXSlxcSpM9KRG4HAq-107" value="" style="endArrow=none;html=1;rounded=0;exitX=0.5;exitY=0;exitDx=0;exitDy=0;entryX=0.062;entryY=0.7;entryDx=0;entryDy=0;entryPerimeter=0;fontFamily=Times New Roman;fontSize=13;" edge="1" parent="1" source="se5RXSlxcSpM9KRG4HAq-103" target="se5RXSlxcSpM9KRG4HAq-72">
          <mxGeometry width="50" height="50" relative="1" as="geometry">
            <mxPoint x="1167.5" y="525" as="sourcePoint" />
            <mxPoint x="1017.5" y="376" as="targetPoint" />
          </mxGeometry>
        </mxCell>
        <mxCell id="se5RXSlxcSpM9KRG4HAq-109" value="" style="endArrow=none;html=1;rounded=0;entryX=0.364;entryY=1.02;entryDx=0;entryDy=0;exitX=0.5;exitY=0;exitDx=0;exitDy=0;entryPerimeter=0;fontFamily=Times New Roman;fontSize=13;" edge="1" parent="1" target="se5RXSlxcSpM9KRG4HAq-72" source="se5RXSlxcSpM9KRG4HAq-105">
          <mxGeometry width="50" height="50" relative="1" as="geometry">
            <mxPoint x="1047.5" y="375" as="sourcePoint" />
            <mxPoint x="1107.5" y="325" as="targetPoint" />
          </mxGeometry>
        </mxCell>
        <mxCell id="se5RXSlxcSpM9KRG4HAq-110" value="" style="endArrow=none;html=1;rounded=0;exitX=0.5;exitY=1;exitDx=0;exitDy=0;entryX=0;entryY=0;entryDx=0;entryDy=0;fontFamily=Times New Roman;fontSize=13;" edge="1" parent="1" target="se5RXSlxcSpM9KRG4HAq-104" source="se5RXSlxcSpM9KRG4HAq-72">
          <mxGeometry width="50" height="50" relative="1" as="geometry">
            <mxPoint x="1064.5" y="382" as="sourcePoint" />
            <mxPoint x="1117.5" y="365" as="targetPoint" />
          </mxGeometry>
        </mxCell>
        <mxCell id="se5RXSlxcSpM9KRG4HAq-111" value="" style="endArrow=none;html=1;rounded=0;exitX=1;exitY=0.5;exitDx=0;exitDy=0;entryX=0;entryY=0;entryDx=0;entryDy=0;fontFamily=Times New Roman;fontSize=13;" edge="1" parent="1" source="se5RXSlxcSpM9KRG4HAq-72" target="se5RXSlxcSpM9KRG4HAq-106">
          <mxGeometry width="50" height="50" relative="1" as="geometry">
            <mxPoint x="1080" y="330" as="sourcePoint" />
            <mxPoint x="1130" y="280" as="targetPoint" />
          </mxGeometry>
        </mxCell>
        <mxCell id="se5RXSlxcSpM9KRG4HAq-114" value="DeliveryDate" style="ellipse;whiteSpace=wrap;html=1;align=center;dashed=1;fontFamily=Times New Roman;fontSize=13;fillColor=#fff2cc;gradientColor=#ffd966;strokeColor=#d6b656;" vertex="1" parent="1">
          <mxGeometry x="440" y="140" width="100" height="40" as="geometry" />
        </mxCell>
        <mxCell id="se5RXSlxcSpM9KRG4HAq-115" value="Salary" style="ellipse;whiteSpace=wrap;html=1;align=center;dashed=1;fontFamily=Times New Roman;fontSize=13;fillColor=#fff2cc;gradientColor=#ffd966;strokeColor=#d6b656;" vertex="1" parent="1">
          <mxGeometry x="95" y="460" width="100" height="40" as="geometry" />
        </mxCell>
        <mxCell id="se5RXSlxcSpM9KRG4HAq-117" value="" style="edgeStyle=entityRelationEdgeStyle;fontSize=13;html=1;endArrow=ERoneToMany;rounded=0;exitX=1;exitY=0.5;exitDx=0;exitDy=0;entryX=0;entryY=0.5;entryDx=0;entryDy=0;fontFamily=Times New Roman;" edge="1" parent="1" source="se5RXSlxcSpM9KRG4HAq-1" target="se5RXSlxcSpM9KRG4HAq-48">
          <mxGeometry width="100" height="100" relative="1" as="geometry">
            <mxPoint x="350" y="655" as="sourcePoint" />
            <mxPoint x="450" y="555" as="targetPoint" />
          </mxGeometry>
        </mxCell>
        <mxCell id="se5RXSlxcSpM9KRG4HAq-119" value="" style="edgeStyle=orthogonalEdgeStyle;fontSize=13;html=1;endArrow=ERoneToMany;rounded=0;exitX=0.5;exitY=0;exitDx=0;exitDy=0;entryX=0.395;entryY=1.085;entryDx=0;entryDy=0;entryPerimeter=0;fontFamily=Times New Roman;" edge="1" parent="1">
          <mxGeometry width="100" height="100" relative="1" as="geometry">
            <mxPoint x="210" y="536.6" as="sourcePoint" />
            <mxPoint x="531.5999999999999" y="280" as="targetPoint" />
            <Array as="points">
              <mxPoint x="210" y="426.6" />
              <mxPoint x="532" y="426.6" />
            </Array>
          </mxGeometry>
        </mxCell>
        <mxCell id="se5RXSlxcSpM9KRG4HAq-121" value="&lt;b&gt;Payment&lt;/b&gt;" style="rounded=0;whiteSpace=wrap;html=1;fontFamily=Times New Roman;fontSize=13;fillColor=#e1d5e7;strokeColor=#9673a6;" vertex="1" parent="1">
          <mxGeometry x="515" y="10" width="80" height="40" as="geometry" />
        </mxCell>
        <mxCell id="se5RXSlxcSpM9KRG4HAq-122" value="PaymentID" style="ellipse;whiteSpace=wrap;html=1;fontFamily=Times New Roman;fontSize=13;fillColor=#e6d0de;gradientColor=#d5739d;strokeColor=#996185;" vertex="1" parent="1">
          <mxGeometry x="435" y="-85" width="90" height="50" as="geometry" />
        </mxCell>
        <mxCell id="se5RXSlxcSpM9KRG4HAq-123" value="CourierID" style="ellipse;whiteSpace=wrap;html=1;fontFamily=Times New Roman;fontSize=13;fillColor=#e6d0de;gradientColor=#d5739d;strokeColor=#996185;" vertex="1" parent="1">
          <mxGeometry x="545" y="-105" width="90" height="50" as="geometry" />
        </mxCell>
        <mxCell id="se5RXSlxcSpM9KRG4HAq-124" value="LocationID" style="ellipse;whiteSpace=wrap;html=1;fontFamily=Times New Roman;fontSize=13;fillColor=#e6d0de;gradientColor=#d5739d;strokeColor=#996185;" vertex="1" parent="1">
          <mxGeometry x="625" y="-55" width="90" height="50" as="geometry" />
        </mxCell>
        <mxCell id="se5RXSlxcSpM9KRG4HAq-125" value="PaymentDate" style="ellipse;whiteSpace=wrap;html=1;fontFamily=Times New Roman;fontSize=13;fillColor=#e6d0de;gradientColor=#d5739d;strokeColor=#996185;" vertex="1" parent="1">
          <mxGeometry x="385" y="5" width="90" height="50" as="geometry" />
        </mxCell>
        <mxCell id="se5RXSlxcSpM9KRG4HAq-126" value="" style="endArrow=none;html=1;rounded=0;exitX=0.25;exitY=0;exitDx=0;exitDy=0;entryX=0.5;entryY=1;entryDx=0;entryDy=0;fontFamily=Times New Roman;fontSize=13;" edge="1" parent="1" source="se5RXSlxcSpM9KRG4HAq-121" target="se5RXSlxcSpM9KRG4HAq-122">
          <mxGeometry width="50" height="50" relative="1" as="geometry">
            <mxPoint x="455" y="-35" as="sourcePoint" />
            <mxPoint x="505" y="-85" as="targetPoint" />
          </mxGeometry>
        </mxCell>
        <mxCell id="se5RXSlxcSpM9KRG4HAq-127" value="" style="endArrow=none;html=1;rounded=0;exitX=0.75;exitY=0;exitDx=0;exitDy=0;fontFamily=Times New Roman;fontSize=13;" edge="1" parent="1" source="se5RXSlxcSpM9KRG4HAq-121" target="se5RXSlxcSpM9KRG4HAq-123">
          <mxGeometry width="50" height="50" relative="1" as="geometry">
            <mxPoint x="455" y="-35" as="sourcePoint" />
            <mxPoint x="505" y="-85" as="targetPoint" />
          </mxGeometry>
        </mxCell>
        <mxCell id="se5RXSlxcSpM9KRG4HAq-128" value="" style="endArrow=none;html=1;rounded=0;exitX=0;exitY=0.5;exitDx=0;exitDy=0;entryX=1;entryY=0.5;entryDx=0;entryDy=0;fontFamily=Times New Roman;fontSize=13;" edge="1" parent="1" source="se5RXSlxcSpM9KRG4HAq-121" target="se5RXSlxcSpM9KRG4HAq-125">
          <mxGeometry width="50" height="50" relative="1" as="geometry">
            <mxPoint x="455" y="-35" as="sourcePoint" />
            <mxPoint x="505" y="-85" as="targetPoint" />
          </mxGeometry>
        </mxCell>
        <mxCell id="se5RXSlxcSpM9KRG4HAq-129" value="" style="endArrow=none;html=1;rounded=0;exitX=0;exitY=0.5;exitDx=0;exitDy=0;entryX=1;entryY=0;entryDx=0;entryDy=0;fontFamily=Times New Roman;fontSize=13;" edge="1" parent="1" source="se5RXSlxcSpM9KRG4HAq-124" target="se5RXSlxcSpM9KRG4HAq-121">
          <mxGeometry width="50" height="50" relative="1" as="geometry">
            <mxPoint x="455" y="-35" as="sourcePoint" />
            <mxPoint x="505" y="-85" as="targetPoint" />
          </mxGeometry>
        </mxCell>
        <mxCell id="se5RXSlxcSpM9KRG4HAq-130" value="" style="endArrow=none;html=1;rounded=0;entryX=1;entryY=0.5;entryDx=0;entryDy=0;exitX=0;exitY=0.5;exitDx=0;exitDy=0;fontFamily=Times New Roman;fontSize=13;" edge="1" parent="1" target="se5RXSlxcSpM9KRG4HAq-121" source="se5RXSlxcSpM9KRG4HAq-132">
          <mxGeometry width="50" height="50" relative="1" as="geometry">
            <mxPoint x="609.5789020769266" y="87.72243862937466" as="sourcePoint" />
            <mxPoint x="505" y="-85" as="targetPoint" />
          </mxGeometry>
        </mxCell>
        <mxCell id="se5RXSlxcSpM9KRG4HAq-131" value="" style="endArrow=none;html=1;rounded=0;fontFamily=Times New Roman;fontSize=13;" edge="1" parent="1">
          <mxGeometry width="50" height="50" relative="1" as="geometry">
            <mxPoint x="450" y="-55" as="sourcePoint" />
            <mxPoint x="510" y="-54" as="targetPoint" />
          </mxGeometry>
        </mxCell>
        <mxCell id="se5RXSlxcSpM9KRG4HAq-132" value="Amount" style="ellipse;whiteSpace=wrap;html=1;align=center;dashed=1;fontFamily=Times New Roman;fontSize=13;fillColor=#fff2cc;gradientColor=#ffd966;strokeColor=#d6b656;" vertex="1" parent="1">
          <mxGeometry x="635" y="10" width="100" height="40" as="geometry" />
        </mxCell>
        <mxCell id="se5RXSlxcSpM9KRG4HAq-133" value="" style="fontSize=13;html=1;endArrow=ERmandOne;startArrow=ERmandOne;rounded=0;entryX=0.5;entryY=1;entryDx=0;entryDy=0;fontFamily=Times New Roman;" edge="1" parent="1" target="se5RXSlxcSpM9KRG4HAq-121">
          <mxGeometry width="100" height="100" relative="1" as="geometry">
            <mxPoint x="555" y="240" as="sourcePoint" />
            <mxPoint x="280" y="-105" as="targetPoint" />
          </mxGeometry>
        </mxCell>
        <mxCell id="se5RXSlxcSpM9KRG4HAq-134" value="" style="edgeStyle=entityRelationEdgeStyle;fontSize=13;html=1;endArrow=ERmany;startArrow=ERmany;rounded=0;exitX=1;exitY=0.25;exitDx=0;exitDy=0;entryX=0;entryY=0.25;entryDx=0;entryDy=0;fontFamily=Times New Roman;" edge="1" parent="1" source="se5RXSlxcSpM9KRG4HAq-48" target="se5RXSlxcSpM9KRG4HAq-69">
          <mxGeometry width="100" height="100" relative="1" as="geometry">
            <mxPoint x="725" y="215" as="sourcePoint" />
            <mxPoint x="825" y="115" as="targetPoint" />
          </mxGeometry>
        </mxCell>
        <mxCell id="se5RXSlxcSpM9KRG4HAq-136" value="" style="edgeStyle=isometricEdgeStyle;fontSize=13;html=1;endArrow=ERoneToMany;rounded=0;exitX=1;exitY=0.25;exitDx=0;exitDy=0;entryX=0;entryY=1;entryDx=0;entryDy=0;fontFamily=Times New Roman;" edge="1" parent="1" source="se5RXSlxcSpM9KRG4HAq-1" target="se5RXSlxcSpM9KRG4HAq-121">
          <mxGeometry width="100" height="100" relative="1" as="geometry">
            <mxPoint x="312.5" y="210" as="sourcePoint" />
            <mxPoint x="412.5" y="110" as="targetPoint" />
          </mxGeometry>
        </mxCell>
        <mxCell id="se5RXSlxcSpM9KRG4HAq-137" value="" style="edgeStyle=elbowEdgeStyle;fontSize=13;html=1;endArrow=ERoneToMany;rounded=0;elbow=vertical;entryX=0.363;entryY=1.063;entryDx=0;entryDy=0;entryPerimeter=0;exitX=0.6;exitY=0.062;exitDx=0;exitDy=0;exitPerimeter=0;fontFamily=Times New Roman;" edge="1" parent="1" source="se5RXSlxcSpM9KRG4HAq-16" target="se5RXSlxcSpM9KRG4HAq-48">
          <mxGeometry width="100" height="100" relative="1" as="geometry">
            <mxPoint x="450" y="410" as="sourcePoint" />
            <mxPoint x="570" y="330" as="targetPoint" />
          </mxGeometry>
        </mxCell>
      </root>
    </mxGraphModel>
  </diagram>
</mxfile>
